<svg width="100" height="100" viewBox="0 0 100 100" fill="none" xmlns="http://www.w3.org/2000/svg">
<path d="M97.593 56.9277C96.5338 56.7309 95.5129 57.4303 95.3158 58.4908C91.2637 80.2803 72.2102 96.0938 50.0092 96.0938H50.0049C24.5885 96.0914 3.90859 75.4117 3.90625 49.9953C3.90508 37.6832 8.69863 26.1088 17.4037 17.4035C26.1082 8.69922 37.6799 3.90625 49.9912 3.90625H49.9957C54.9779 3.90664 59.8436 4.68906 64.5031 6.23535C62.0834 8.58652 60.5895 11.9713 60.5895 15.7914C60.5895 28.9574 78.6578 37.7072 79.427 38.0732C79.6895 38.198 79.9762 38.2627 80.2662 38.2627C80.2857 38.2627 80.3055 38.2625 80.3252 38.2619L80.4041 38.2596C80.6756 38.2514 80.9424 38.1865 81.1873 38.0695C81.5998 37.8725 87.0104 35.2428 91.9145 30.8008C93.4773 34.2055 94.6158 37.7855 95.3063 41.474C95.4818 42.4129 96.3021 43.0682 97.2236 43.0682C97.3428 43.0682 97.4639 43.0572 97.5854 43.0344C98.6457 42.8359 99.3443 41.8154 99.1457 40.7553C98.3055 36.2666 96.8543 31.9262 94.8275 27.8359C97.7316 24.4775 99.942 20.4057 99.942 15.7914C99.942 8.52656 94.5387 2.83555 87.6408 2.83555C84.8668 2.83555 82.3498 3.73711 80.2652 5.46094C78.5762 4.0666 76.1594 2.83555 72.8906 2.83555C71.3934 2.83555 69.9666 3.10371 68.6502 3.59785C62.7205 1.21094 56.4473 0.000585938 49.9959 0H49.991C36.6373 0 24.0834 5.1998 14.6416 14.6414C5.19863 24.0846 -0.00117168 36.6402 1.98035e-07 49.9957C0.00117207 63.351 5.20332 75.9076 14.6479 85.3521C24.0924 94.7967 36.649 99.9988 50.0045 100H50.0092C74.0895 100 94.7604 82.8426 99.1561 59.2051C99.3533 58.1445 98.6535 57.125 97.593 56.9277ZM78.7961 9.46543C79.1705 9.89316 79.7193 10.1322 80.2871 10.1248C80.848 10.1207 81.3859 9.86816 81.7533 9.44473C81.7699 9.42754 81.7863 9.40996 81.8022 9.39199C83.3713 7.63359 85.3355 6.74199 87.6406 6.74199C92.348 6.74199 96.0356 10.717 96.0356 15.7916C96.0356 25.118 83.6045 32.3717 80.3002 34.1346C76.9748 32.3727 64.4955 25.1357 64.4955 15.7916C64.4955 10.717 68.183 6.74199 72.8906 6.74199C75.2277 6.74199 77.2147 7.6582 78.7961 9.46543Z" fill="#373737"/>
<path d="M99.4513 49.4941C99.1314 48.7265 98.3392 48.2334 97.5081 48.2935C96.6968 48.3521 95.997 48.9263 95.7718 49.706C95.5462 50.4871 95.8484 51.3582 96.5114 51.8293C97.1698 52.297 98.0593 52.3103 98.7325 51.8654C99.5028 51.3562 99.7991 50.3431 99.4513 49.4941Z" fill="#373737"/>
<path d="M62.1921 44.034L65.5808 40.6453L68.9693 44.034C69.732 44.7969 70.9683 44.7969 71.7316 44.034C72.4943 43.2713 72.4943 42.0345 71.7316 41.2719L66.9621 36.5021C66.5959 36.1357 66.099 35.9301 65.581 35.9301C65.063 35.9301 64.5664 36.1359 64.2 36.5021L59.4302 41.2719C58.6675 42.0345 58.6675 43.2713 59.4302 44.0342C59.8117 44.4156 60.3115 44.6062 60.8113 44.6062C61.3109 44.6058 61.8105 44.4152 62.1921 44.034Z" fill="#373737"/>
<path d="M30.9147 44.034L34.3033 40.6453L37.692 44.034C38.0735 44.4154 38.5733 44.6061 39.0731 44.6061C39.5729 44.6061 40.0729 44.4154 40.4541 44.034C41.2168 43.2713 41.2168 42.0346 40.4541 41.2717L35.6844 36.502C34.9217 35.7393 33.685 35.7393 32.9223 36.502L28.1526 41.2717C27.3899 42.0344 27.3899 43.2711 28.1526 44.034C28.9153 44.7967 30.152 44.7967 30.9147 44.034Z" fill="#373737"/>
<path d="M20.7545 52.8131V55.1508C20.7545 58.0453 21.1773 60.9047 22.0117 63.6494C22.0166 63.6656 22.0219 63.6818 22.0271 63.6978C24.2502 70.967 29.1467 77.0037 35.8199 80.7C35.8215 80.701 35.8232 80.7019 35.8248 80.7027C40.1191 83.0812 45.0008 84.3383 49.9418 84.3383C54.8828 84.3383 59.7645 83.081 64.0588 80.7027C64.0596 80.7023 64.0603 80.7019 64.0609 80.7014C65.2441 80.0465 66.3939 79.3006 67.4793 78.4836C72.3852 74.79 76.0686 69.5408 77.8559 63.6986C77.8613 63.6822 77.8666 63.6658 77.8717 63.6492C78.7061 60.9047 79.1291 58.0453 79.1291 55.1504V52.8127C79.1291 51.734 78.2547 50.8596 77.176 50.8596H22.7076C21.6289 50.8599 20.7545 51.7344 20.7545 52.8131ZM49.9418 80.4324C46.4133 80.4324 42.9213 79.6932 39.7215 78.2805C42.2771 75.3439 45.9643 73.6426 49.9418 73.6426C53.5656 73.6426 56.9744 75.0545 59.5396 77.6178C59.7543 77.8324 59.9611 78.0537 60.1604 78.2812C56.9611 79.6933 53.4693 80.4324 49.9418 80.4324ZM65.1301 75.3631C64.6545 75.7211 64.1646 76.0633 63.6639 76.3875C63.2414 75.8523 62.7863 75.3402 62.3012 74.8553C58.9978 71.5543 54.6084 69.7363 49.9416 69.7363C44.5205 69.7363 39.5184 72.1904 36.2195 76.3861C31.9971 73.6432 28.6416 69.6475 26.6695 65.0357H73.2141C71.4814 69.0916 68.674 72.6951 65.1301 75.3631ZM24.6607 54.7662H75.2228V55.1508C75.2228 57.1764 74.9842 59.181 74.5123 61.1283H25.3713C24.8994 59.1808 24.6607 57.1762 24.6607 55.1508V54.7662Z" fill="#373737"/>
</svg>
